<svg xmlns="http://www.w3.org/2000/svg" viewBox="0 0 64 64" width="64" height="64">
  <defs>
    <linearGradient id="bg" x1="0" y1="0" x2="0" y2="1">
      <stop offset="0" stop-color="#243044" />
      <stop offset="1" stop-color="#14181f" />
    </linearGradient>
  </defs>
  <rect width="64" height="64" rx="14" fill="url(#bg)" />
  <g transform="translate(6.5 6.5) scale(0.8)">
    <path d="M13 7 L31 24 L14 29 Z" fill="#5b6472" />
    <path d="M51 7 L33 24 L50 29 Z" fill="#5b6472" />
    <path d="M18 13 L28 23 L19 26 Z" fill="#363d49" />
    <path d="M46 13 L36 23 L45 26 Z" fill="#363d49" />
    <path d="M11 25 C13 19 22 17 32 17 C42 17 51 19 53 25 L50 39 C48 48 41 56 32 56 C23 56 16 48 14 39 Z" fill="#727b88" />
    <path d="M23 38 C23 33 28 31 32 31 C36 31 41 33 41 38 L38 48 C37 52 34 54 32 54 C30 54 27 52 26 48 Z" fill="#b7bec8" />
    <path d="M18 32 L29 30 L26 37 Z" fill="#1f2733" />
    <path d="M46 32 L35 30 L38 37 Z" fill="#1f2733" />
    <path d="M28 40 L36 40 L32 45 Z" fill="#1f2733" />
  </g>
</svg>
